<?xml version="1.0" encoding="utf-8"?>
<!-- Generator: Adobe Illustrator 25.2.0, SVG Export Plug-In . SVG Version: 6.00 Build 0)  -->
<svg version="1.1" id="Layer_1" xmlns="http://www.w3.org/2000/svg" xmlns:xlink="http://www.w3.org/1999/xlink" x="0px" y="0px"
	 viewBox="0 0 1280 1024" style="enable-background:new 0 0 1280 1024;" xml:space="preserve">
<style type="text/css">
	.st0{clip-path:url(#SVGID_2_);}
	.st1{fill:#EA4335;}
	.st2{fill:#4285F4;}
	.st3{fill:#FBBC04;}
	.st4{fill:#0F9D58;}
	.st5{fill:#686C71;}
	.st6{fill:#676C72;}
</style>
<g>
	<g id="g10" transform="matrix(1.3333333,0,0,-1.3333333,0,645.11867)">
		<g id="g12">
			<g>
				<defs>
					<rect id="SVGID_1_" x="353.8" y="7" width="261.3" height="126.4"/>
				</defs>
				<clipPath id="SVGID_2_">
					<use xlink:href="#SVGID_1_"  style="overflow:visible;"/>
				</clipPath>
				<g id="g14" class="st0">
					<g id="g20" transform="translate(248.8799,241.3715)">
						<path id="path22" class="st1" d="M186.3-171.3l30.6,17.7c7.2,4.2,9.7,13.4,5.5,20.6c-4.2,7.2-13.4,9.7-20.6,5.5L149-158.1
							L186.3-171.3z"/>
					</g>
					<g id="g24" transform="translate(366.5474,9.6449)">
						<path id="path26" class="st2" d="M91.7,15c5.2,0,10.3,2.7,13.1,7.5c4.2,7.2,1.7,16.4-5.5,20.6L46.4,73.7
							c-7.2,4.2-16.4,1.7-20.6-5.5c-4.2-7.2-1.7-16.4,5.5-20.6l52.9-30.5C86.6,15.7,89.2,15,91.7,15"/>
					</g>
					<g id="g28" transform="translate(634.9634,9.6449)">
						<path id="path30" class="st3" d="M-124.1,15c2.6,0,5.1,0.7,7.5,2l52.9,30.5l-36.9,13.5l-31.1-17.9c-7.2-4.2-9.7-13.4-5.5-20.6
							C-134.3,17.7-129.3,15-124.1,15"/>
					</g>
					<g id="g32" transform="translate(904.6509,165.4311)">
						<path id="path34" class="st4" d="M-340.9-110.2c5.2,0,10.3,2.7,13.1,7.5c4.2,7.2,1.7,16.4-5.5,20.6l-52.9,30.5
							c-7.2,4.2-16.4,1.7-20.6-5.5c-4.2-7.2-1.7-16.4,5.5-20.6l52.9-30.5C-346.1-109.6-343.5-110.2-340.9-110.2"/>
					</g>
				</g>
			</g>
		</g>
	</g>
	<g>
		<g>
			<path class="st5" d="M309.6,685h10.8c13.3,0,20.4,7.7,20.4,21.3c0,13.7-7.1,21.7-20.2,21.7h-11.1V685z M320,723.5
				c10.1,0,15.2-6.3,15.2-17.2s-5-16.9-15.2-16.9h-4.9v34H320z"/>
			<path class="st5" d="M347.3,712.1c0-10.4,7-16.8,14.4-16.8c8.2,0,12.8,5.8,12.8,14.9c0,1.1-0.1,2.3-0.3,3.1h-21.6
				c0.4,6.7,4.5,11.1,10.6,11.1c3.1,0,5.6-1,8-2.5l1.9,3.5c-2.8,1.8-6.2,3.3-10.6,3.3C354.1,728.8,347.3,722.6,347.3,712.1z
				 M369.7,709.5c0-6.4-2.9-9.9-7.9-9.9c-4.5,0-8.5,3.6-9.2,9.9H369.7z"/>
			<path class="st5" d="M377.7,696.1h5.6l6.1,18.1c1,3.1,2,6.4,3,9.4h0.3c1-3,2-6.3,3-9.4l6.1-18.1h5.3L395.6,728h-6.3L377.7,696.1z
				"/>
			<path class="st5" d="M410.8,712.1c0-10.4,7-16.8,14.4-16.8c8.2,0,12.8,5.8,12.8,14.9c0,1.1-0.1,2.3-0.3,3.1h-21.6
				c0.4,6.7,4.5,11.1,10.6,11.1c3.1,0,5.6-1,8-2.5l1.9,3.5c-2.8,1.8-6.2,3.3-10.6,3.3C417.6,728.8,410.8,722.6,410.8,712.1z
				 M433.1,709.5c0-6.4-2.9-9.9-7.9-9.9c-4.5,0-8.5,3.6-9.2,9.9H433.1z"/>
			<path class="st5" d="M445.8,721.6v-40.3h5.4V722c0,1.6,0.7,2.3,1.5,2.3c0.3,0,0.6,0,1.2-0.1l0.7,4.1c-0.8,0.3-1.7,0.5-3.1,0.5
				C447.5,728.8,445.8,726.2,445.8,721.6z"/>
			<path class="st5" d="M460.3,712.1c0-10.6,7-16.8,14.8-16.8c7.9,0,14.8,6.1,14.8,16.8c0,10.5-7,16.7-14.8,16.7
				C467.2,728.8,460.3,722.7,460.3,712.1z M484.3,712.1c0-7.3-3.7-12.3-9.2-12.3c-5.5,0-9.2,5-9.2,12.3c0,7.3,3.7,12.2,9.2,12.2
				C480.6,724.3,484.3,719.4,484.3,712.1z"/>
			<path class="st5" d="M498.4,696.1h4.5l0.5,3.7h0.2c2.9-2.4,6.5-4.5,10.2-4.5c8.3,0,12.7,6.4,12.7,16.2c0,10.9-6.6,17.2-13.9,17.2
				c-2.9,0-5.9-1.3-8.9-3.7l0.1,5.6v10.8h-5.4V696.1z M520.8,711.6c0-7-2.4-11.7-8.4-11.7c-2.7,0-5.4,1.5-8.6,4.3v16.7
				c2.9,2.4,5.7,3.3,7.8,3.3C516.9,724.2,520.8,719.5,520.8,711.6z"/>
			<path class="st5" d="M532.6,712.1c0-10.4,7-16.8,14.4-16.8c8.2,0,12.8,5.8,12.8,14.9c0,1.1-0.1,2.3-0.3,3.1h-21.6
				c0.4,6.7,4.5,11.1,10.6,11.1c3.1,0,5.6-1,8-2.5l1.9,3.5c-2.8,1.8-6.2,3.3-10.6,3.3C539.4,728.8,532.6,722.6,532.6,712.1z
				 M555,709.5c0-6.4-2.9-9.9-7.9-9.9c-4.5,0-8.5,3.6-9.2,9.9H555z"/>
			<path class="st5" d="M567.6,696.1h4.5l0.5,5.8h0.2c2.2-4,5.5-6.6,9.1-6.6c1.4,0,2.4,0.2,3.4,0.7l-1,4.7c-1.1-0.3-1.8-0.5-3.1-0.5
				c-2.7,0-5.9,1.9-8.1,7.3V728h-5.4V696.1z"/>
			<path class="st5" d="M601.1,722.4l3.3-3.8c3.1,3.2,7.4,5.3,11.9,5.3c5.7,0,9-2.8,9-7c0-4.4-3.1-5.8-7.2-7.6l-6.2-2.7
				c-4-1.7-8.8-4.7-8.8-11.1c0-6.6,5.8-11.4,13.6-11.4c5.1,0,9.7,2.2,12.7,5.3l-2.9,3.5c-2.7-2.5-5.8-4-9.8-4
				c-4.9,0-8.1,2.4-8.1,6.3c0,4.1,3.8,5.7,7.2,7.1l6.2,2.7c5,2.1,8.9,5.1,8.9,11.5c0,6.8-5.6,12.2-14.7,12.2
				C610.1,728.8,604.8,726.3,601.1,722.4z"/>
			<path class="st5" d="M639.8,718.2v-17.6h-4.8v-4.1l5-0.3l0.7-8.9h4.5v8.9h8.7v4.4h-8.7v17.7c0,3.9,1.3,6.1,5,6.1
				c1.1,0,2.6-0.4,3.7-0.9l1,4.1c-1.8,0.6-3.9,1.2-5.9,1.2C642.1,728.8,639.8,724.5,639.8,718.2z"/>
			<path class="st5" d="M660.7,716.3v-20.2h5.4v19.5c0,5.9,1.8,8.5,6,8.5c3.3,0,5.5-1.6,8.6-5.4v-22.6h5.4V728h-4.5l-0.5-5h-0.2
				c-3,3.5-6.2,5.8-10.6,5.8C663.8,728.8,660.7,724.5,660.7,716.3z"/>
			<path class="st5" d="M694.7,712.1c0-10.3,6.6-16.8,13.9-16.8c3.7,0,6.2,1.4,9,3.7l-0.2-5.5v-12.3h5.4V728h-4.5l-0.5-3.8h-0.2
				c-2.5,2.5-5.9,4.5-9.7,4.5C699.9,728.8,694.7,722.7,694.7,712.1z M717.4,719.9v-16.7c-2.7-2.4-5.2-3.3-7.8-3.3
				c-5.1,0-9.2,4.9-9.2,12.2c0,7.6,3.2,12.2,8.8,12.2C712.1,724.2,714.7,722.8,717.4,719.9z"/>
			<path class="st5" d="M731.2,712.1c0-10.4,7-16.8,14.4-16.8c8.2,0,12.8,5.8,12.8,14.9c0,1.1-0.1,2.3-0.3,3.1h-21.6
				c0.4,6.7,4.5,11.1,10.6,11.1c3.1,0,5.6-1,8-2.5l1.9,3.5c-2.8,1.8-6.2,3.3-10.6,3.3C738,728.8,731.2,722.6,731.2,712.1z
				 M753.6,709.5c0-6.4-2.9-9.9-7.9-9.9c-4.5,0-8.5,3.6-9.2,9.9H753.6z"/>
			<path class="st5" d="M766.3,696.1h4.5l0.5,4.6h0.2c3.1-3,6.3-5.4,10.7-5.4c6.8,0,9.8,4.3,9.8,12.5V728h-5.4v-19.5
				c0-5.9-1.8-8.5-6-8.5c-3.3,0-5.5,1.7-8.8,4.9V728h-5.4V696.1z"/>
			<path class="st5" d="M803.3,718.2v-17.6h-4.8v-4.1l5-0.3l0.7-8.9h4.5v8.9h8.7v4.4h-8.7v17.7c0,3.9,1.3,6.1,5,6.1
				c1.1,0,2.6-0.4,3.7-0.9l1,4.1c-1.8,0.6-3.9,1.2-5.9,1.2C805.6,728.8,803.3,724.5,803.3,718.2z"/>
			<path class="st5" d="M835.8,706.5c0-13.9,8.2-22.3,19.2-22.3c5.3,0,9.4,2.5,11.9,5.3l-3,3.6c-2.3-2.4-5.1-4.1-8.8-4.1
				c-8.2,0-13.6,6.7-13.6,17.4c0,10.8,5.2,17.6,13.4,17.6c4.1,0,7.3-1.8,10-4.8l3,3.4c-3.4,3.9-7.7,6.2-13.3,6.2
				C843.9,728.8,835.8,720.5,835.8,706.5z"/>
			<path class="st5" d="M875.5,721.6v-40.3h5.4V722c0,1.6,0.7,2.3,1.5,2.3c0.3,0,0.6,0,1.2-0.1l0.7,4.1c-0.8,0.3-1.7,0.5-3.1,0.5
				C877.1,728.8,875.5,726.2,875.5,721.6z"/>
			<path class="st5" d="M891.8,716.3v-20.2h5.4v19.5c0,5.9,1.8,8.5,6,8.5c3.3,0,5.5-1.6,8.6-5.4v-22.6h5.4V728h-4.5l-0.5-5h-0.2
				c-3,3.5-6.2,5.8-10.6,5.8C894.9,728.8,891.8,724.5,891.8,716.3z"/>
			<path class="st5" d="M933.1,724.7H933l-0.5,3.3h-4.3v-46.7h5.4v12.8l-0.2,5.7c2.9-2.5,6.5-4.4,10.1-4.4c8.3,0,12.7,6.4,12.7,16.2
				c0,10.9-6.6,17.2-13.9,17.2C939.3,728.8,936,727.3,933.1,724.7z M950.6,711.6c0-7-2.4-11.7-8.4-11.7c-2.7,0-5.5,1.5-8.6,4.3v16.7
				c2.8,2.4,5.7,3.3,7.8,3.3C946.7,724.2,950.6,719.5,950.6,711.6z"/>
			<path class="st5" d="M961,724.4l2.7-3.5c2.8,2.2,5.6,3.8,9.5,3.8c4.2,0,6.3-2.2,6.3-4.9c0-3.3-3.8-4.7-7.3-6
				c-4.5-1.6-9.6-3.8-9.6-9.2c0-5.1,4.1-9,11.1-9c4,0,7.5,1.6,10,3.6l-2.6,3.5c-2.2-1.6-4.5-2.8-7.3-2.8c-4,0-5.9,2.1-5.9,4.6
				c0,3,3.5,4.2,7.1,5.5c4.6,1.7,9.8,3.6,9.8,9.7c0,5.2-4.1,9.5-11.7,9.5C968.4,728.8,964,726.9,961,724.4z"/>
		</g>
	</g>
	<g>
		<g>
			<path class="st6" d="M442.8,784.8v-16.6h3.7v16.7c0,6.8,3,8.9,6.8,8.9c3.9,0,7-2.1,7-8.9v-16.7h3.6v16.6
				c0,9.1-4.5,12.2-10.5,12.2C447.3,796.9,442.8,793.8,442.8,784.8z"/>
			<path class="st6" d="M471.4,775.5h3l0.3,3h0.1c2.1-2,4.3-3.5,7.3-3.5c4.6,0,6.6,2.8,6.6,8.2v13.3h-3.7v-12.8
				c0-3.9-1.2-5.6-4.1-5.6c-2.2,0-3.8,1.1-5.9,3.2v15.2h-3.7V775.5z"/>
			<path class="st6" d="M495.2,768.9c0-1.4,1.1-2.3,2.5-2.3c1.4,0,2.5,0.9,2.5,2.3c0,1.3-1.1,2.3-2.5,2.3
				C496.3,771.2,495.2,770.2,495.2,768.9z M495.9,775.5h3.7v20.9h-3.7V775.5z"/>
			<path class="st6" d="M503.8,775.5h3.8l4.1,11.9c0.6,2,1.4,4.2,2,6.2h0.2c0.6-2,1.4-4.1,2-6.2l4.1-11.9h3.6l-7.7,20.9h-4.3
				L503.8,775.5z"/>
			<path class="st6" d="M526.2,786c0-6.8,4.8-11,9.8-11c5.5,0,8.7,3.8,8.7,9.8c0,0.7-0.1,1.5-0.2,2h-14.6c0.3,4.4,3.1,7.3,7.2,7.3
				c2.1,0,3.8-0.6,5.4-1.7l1.3,2.3c-1.9,1.2-4.2,2.2-7.2,2.2C530.8,796.9,526.2,792.9,526.2,786z M541.4,784.3c0-4.2-2-6.5-5.4-6.5
				c-3.1,0-5.8,2.4-6.2,6.5H541.4z"/>
			<path class="st6" d="M550,775.5h3l0.3,3.8h0.1c1.5-2.7,3.7-4.3,6.2-4.3c1,0,1.6,0.1,2.3,0.4l-0.7,3.1c-0.7-0.2-1.2-0.3-2.1-0.3
				c-1.8,0-4,1.3-5.5,4.8v13.4H550V775.5z"/>
			<path class="st6" d="M563.1,794l1.8-2.3c1.9,1.5,3.8,2.5,6.4,2.5c2.9,0,4.3-1.5,4.3-3.2c0-2.2-2.6-3.1-5-4c-3-1.1-6.5-2.5-6.5-6
				c0-3.3,2.8-5.9,7.5-5.9c2.7,0,5.1,1.1,6.8,2.4l-1.8,2.3c-1.5-1.1-3-1.9-5-1.9c-2.7,0-4,1.4-4,3c0,2,2.4,2.7,4.8,3.6
				c3.1,1.1,6.6,2.4,6.6,6.3c0,3.4-2.8,6.2-7.9,6.2C568.1,796.9,565.1,795.7,563.1,794z"/>
			<path class="st6" d="M583.6,768.9c0-1.4,1.1-2.3,2.5-2.3s2.5,0.9,2.5,2.3c0,1.3-1.1,2.3-2.5,2.3S583.6,770.2,583.6,768.9z
				 M584.2,775.5h3.7v20.9h-3.7V775.5z"/>
			<path class="st6" d="M595.9,790v-11.6h-3.2v-2.7l3.4-0.2l0.4-5.9h3.1v5.9h5.9v2.9h-5.9V790c0,2.6,0.9,4,3.4,4
				c0.8,0,1.8-0.3,2.5-0.6l0.7,2.7c-1.2,0.4-2.7,0.8-4,0.8C597.5,796.9,595.9,794.1,595.9,790z"/>
			<path class="st6" d="M608.2,805l0.7-2.8c0.4,0.1,1.1,0.3,1.7,0.3c2.5,0,4-1.9,4.9-4.5l0.5-1.5l-8.7-21h3.8l4.4,11.6
				c0.7,1.8,1.4,4,2.1,5.9h0.2c0.6-1.9,1.2-4,1.8-5.9l3.9-11.6h3.6l-8.2,22.6c-1.5,4.2-3.8,7.3-8.1,7.3
				C609.7,805.4,608.9,805.3,608.2,805z"/>
			<path class="st6" d="M638.6,786c0-7,4.7-11,10.1-11c5.3,0,10.1,4,10.1,11c0,6.9-4.7,11-10.1,11
				C643.3,796.9,638.6,792.9,638.6,786z M655,786c0-4.8-2.5-8.1-6.3-8.1s-6.3,3.3-6.3,8.1s2.5,8,6.3,8S655,790.8,655,786z"/>
			<path class="st6" d="M662.1,775.7l3.1-0.2h8.1v2.9h-11.2V775.7z M665.1,772.2c0-4.3,2-7,6.4-7c1.3,0,2.6,0.3,3.6,0.7l-0.8,2.7
				c-0.8-0.4-1.7-0.5-2.5-0.5c-2.1,0-3.1,1.4-3.1,4.1v24.2h-3.7V772.2z"/>
			<path class="st6" d="M686.8,768.2h4.5l5.6,15.1c0.7,1.9,1.4,3.9,2.1,5.9h0.2c0.7-2,1.3-4,2-5.9l5.6-15.1h4.5v28.3h-3.5v-15.6
				c0-2.5,0.3-5.9,0.5-8.4h-0.2l-2.3,6.4l-5.5,14.6h-2.5l-5.6-14.6l-2.3-6.4h-0.2c0.2,2.5,0.5,5.9,0.5,8.4v15.6h-3.4V768.2z"/>
			<path class="st6" d="M718.3,768.9c0-1.4,1.1-2.3,2.5-2.3c1.4,0,2.5,0.9,2.5,2.3c0,1.3-1.1,2.3-2.5,2.3
				C719.4,771.2,718.3,770.2,718.3,768.9z M719,775.5h3.7v20.9H719V775.5z"/>
			<path class="st6" d="M728.4,786c0-7,4.9-11,10.5-11c2.9,0,4.8,1.1,6.4,2.5l-1.9,2.3c-1.3-1.1-2.6-1.8-4.3-1.8
				c-3.9,0-6.8,3.3-6.8,8.1s2.7,8,6.7,8c2,0,3.7-0.9,5.1-2.1l1.6,2.4c-2,1.7-4.4,2.7-7,2.7C732.8,796.9,728.4,792.9,728.4,786z"/>
			<path class="st6" d="M750.4,765.8h3.7v8.4l-0.1,4.3c2-1.9,4.2-3.5,7.2-3.5c4.6,0,6.6,2.8,6.6,8.2v13.3h-3.7v-12.8
				c0-3.9-1.2-5.6-4.1-5.6c-2.2,0-3.8,1.1-5.9,3.2v15.2h-3.7V765.8z"/>
			<path class="st6" d="M774.1,768.9c0-1.4,1.1-2.3,2.5-2.3c1.4,0,2.5,0.9,2.5,2.3c0,1.3-1.1,2.3-2.5,2.3
				C775.2,771.2,774.1,770.2,774.1,768.9z M774.7,775.5h3.7v20.9h-3.7V775.5z"/>
			<path class="st6" d="M784.1,800.4c0-1.8,1.2-3.5,3.2-4.7v-0.2c-1.1-0.7-1.9-1.8-1.9-3.4c0-1.7,1.3-3.1,2.4-3.9v-0.2
				c-1.4-1.1-2.8-3.1-2.8-5.6c0-4.6,3.7-7.5,8.2-7.5c1.2,0,2.3,0.2,3.1,0.5h7.6v2.7h-4.5c1,1,1.8,2.5,1.8,4.3c0,4.5-3.5,7.3-8,7.3
				c-1.1,0-2.3-0.2-3.2-0.7c-0.8,0.6-1.4,1.3-1.4,2.5c0,1.3,0.9,2.3,3.8,2.3h4.2c5.1,0,7.6,1.5,7.6,5c0,3.9-4.3,7.2-11,7.2
				C787.8,806.1,784.1,804,784.1,800.4z M800.5,799.3c0-1.9-1.5-2.6-4.4-2.6h-3.8c-0.8,0-1.9-0.1-2.8-0.3c-1.6,1.1-2.2,2.3-2.2,3.5
				c0,2.2,2.4,3.7,6.3,3.7C797.8,803.6,800.5,801.5,800.5,799.3z M797.7,782.4c0-3-2.1-4.9-4.6-4.9s-4.6,1.8-4.6,4.9
				c0,3,2.1,5,4.6,5S797.7,785.5,797.7,782.4z"/>
			<path class="st6" d="M807,791c0-4.6,4.1-6.8,13.4-7.8c0-2.7-0.9-5.3-4.5-5.3c-2.5,0-4.8,1.1-6.5,2.2l-1.4-2.4
				c2-1.3,5.1-2.7,8.5-2.7c5.3,0,7.6,3.4,7.6,8.6v12.8h-3l-0.3-2.5h-0.1c-2.1,1.7-4.5,3-7.2,3C809.7,796.9,807,794.8,807,791z
				 M820.3,791.3v-5.8c-7.3,0.8-9.8,2.6-9.8,5.2c0,2.4,1.7,3.3,3.8,3.3C816.5,794.1,818.2,793.1,820.3,791.3z"/>
			<path class="st6" d="M830.8,775.5h3l0.3,3h0.1c2.1-2,4.3-3.5,7.3-3.5c4.6,0,6.6,2.8,6.6,8.2v13.3h-3.7v-12.8
				c0-3.9-1.2-5.6-4.1-5.6c-2.2,0-3.8,1.1-5.9,3.2v15.2h-3.7V775.5z"/>
		</g>
	</g>
</g>
</svg>
